<svg width="593" height="487" viewBox="0 0 593 487" fill="none" xmlns="http://www.w3.org/2000/svg">
<path d="M261.285 397.062C264.706 398.694 268.302 399.832 271.965 400.481L272.588 414.039L292.461 413.157L291.821 399.24C295.479 398.106 299.004 396.463 302.277 394.316L312.829 403.787L326.245 389.356L315.694 379.885C317.574 376.488 318.922 372.891 319.741 369.208L333.579 368.593L332.681 349.067L319.207 349.665C318.129 345.816 316.466 342.098 314.225 338.648L323.145 329.054L308.457 315.871L299.81 325.172C296.139 323.114 292.208 321.29 288.195 320.428C284.862 326.53 281.572 333.143 278.466 340.196C283.614 340.072 288.815 341.825 292.917 345.506C301.348 353.075 301.94 365.926 294.237 374.211C286.765 382.249 274.231 383.035 265.79 376.164C263.993 382.924 262.465 389.903 261.285 397.062Z" fill="#D65B6E"/>
<path d="M389.816 268.422C386.8 268.253 383.797 268.143 380.813 268.098C380.162 269.093 379.556 270.13 378.998 271.208C370.043 288.513 377.062 309.675 394.674 318.474C412.287 327.273 433.823 320.377 442.778 303.071C447.104 294.712 447.702 285.453 445.18 277.122C442.311 276.42 439.421 275.748 436.514 275.109C440.18 282.663 440.362 291.749 436.203 299.786C429.094 313.524 411.998 318.998 398.017 312.013C384.036 305.029 378.465 288.23 385.573 274.493C386.739 272.241 388.172 270.211 389.816 268.422Z" fill="#002651"/>
<path d="M436.514 275.109C421.133 271.729 405.298 269.29 389.816 268.422C388.172 270.211 386.739 272.241 385.573 274.493C378.465 288.23 384.036 305.029 398.017 312.013C411.998 318.998 429.094 313.524 436.203 299.786C440.362 291.749 440.18 282.663 436.514 275.109Z" fill="#D65B6E"/>
<path d="M466.041 282.818C459.276 280.782 452.295 278.862 445.18 277.122C447.702 285.453 447.104 294.712 442.778 303.071C433.823 320.377 412.287 327.273 394.674 318.474C377.062 309.675 370.043 288.513 378.998 271.208C379.556 270.13 380.162 269.093 380.813 268.098C369.894 267.933 359.235 268.629 349.128 270.415L356.629 274.162C355.298 279.79 354.929 285.509 355.452 291.107L339.574 296.191L347.706 320.709L364.041 315.478C366.991 319.947 370.642 324.017 374.935 327.513L366.994 342.861L390.387 354.548L398.57 338.734C403.946 339.848 409.392 340.136 414.73 339.655L420.376 356.679L445.328 348.689L439.533 331.215C443.779 328.509 447.672 325.202 451.066 321.341L467.872 329.737L479.767 306.751L462.96 298.355C464.136 293.385 466.317 287.784 466.041 282.818Z" fill="#D65B6E"/>
<path d="M265.79 376.164C274.231 383.035 286.765 382.249 294.237 374.211C301.94 365.926 301.348 353.075 292.917 345.506C288.815 341.825 283.614 340.072 278.466 340.196C273.617 351.206 269.214 363.287 265.79 376.164Z" fill="#002651"/>
<path d="M314.087 282.844C307.15 290.332 297.503 303.385 288.195 320.428C292.208 321.29 296.139 323.114 299.81 325.172L308.457 315.871L323.145 329.054L314.225 338.648C316.466 342.098 318.129 345.816 319.207 349.665L332.681 349.067L333.579 368.593L319.741 369.208C318.922 372.891 317.574 376.488 315.694 379.885L326.245 389.356L312.829 403.787L302.277 394.316C299.004 396.463 295.479 398.106 291.821 399.24L292.461 413.157L272.588 414.039L271.965 400.481C268.302 399.832 264.706 398.694 261.285 397.062C257.159 422.082 258.507 448.409 266.146 476.115C293.141 463.721 302.434 460.622 302.434 460.622C315.548 376.691 409.784 380.357 447.886 395.158C457.734 358.557 492.72 328.073 526.799 306.141C511.973 298.94 489.883 289.994 466.041 282.818C466.317 287.784 464.136 293.385 462.96 298.355L479.767 306.751L467.872 329.737L451.066 321.341C447.672 325.202 443.779 328.509 439.533 331.215L445.328 348.689L420.376 356.679L414.73 339.655C409.392 340.136 403.946 339.848 398.57 338.734L390.387 354.548L366.994 342.861L374.935 327.513C370.642 324.017 366.991 319.947 364.041 315.478L347.706 320.709L339.574 296.191L355.452 291.107C354.929 285.509 355.298 279.79 356.629 274.162L349.128 270.415C336.372 272.668 324.496 276.658 314.087 282.844Z" fill="#002651"/>
<path d="M159.938 139.709L17 363.242L192.984 318.093C192.352 309.385 191.605 281.547 192.984 276.927C214.988 255.095 245.997 230.293 283.848 207.434C332.061 178.317 391.376 152.356 457.321 139.709C467.056 140.595 473.536 144.578 486.97 152.103L575.034 14L159.938 139.709Z" fill="#002651"/>
<path d="M583 272.058C559.28 205.84 509.097 164.497 486.97 152.103C473.536 144.578 467.056 140.595 457.321 139.709C391.376 152.356 332.061 178.317 283.848 207.434L311.285 280.026C370.407 244.261 476.94 280.689 522.815 303.373C545.132 288.753 567.462 278.018 583 272.058Z" fill="#4FC1E9"/>
<path d="M192.984 318.093C197.018 373.632 255.083 461.508 262.606 477C238.532 388.118 288.863 304.666 311.285 280.026L283.848 207.434C245.997 230.293 214.988 255.095 192.984 276.927C191.605 281.547 192.352 309.385 192.984 318.093Z" fill="#0D8ABC"/>
<path d="M486.97 152.103L575.034 14L159.938 139.709L17 363.242L192.984 318.093M486.97 152.103C509.097 164.497 559.28 205.84 583 272.058C567.462 278.018 545.132 288.753 522.815 303.373M486.97 152.103C473.536 144.578 467.056 140.595 457.321 139.709C391.376 152.356 332.061 178.317 283.848 207.434M262.606 477C255.083 461.508 197.018 373.632 192.984 318.093M262.606 477C238.532 388.118 288.863 304.666 311.285 280.026M262.606 477L302.434 460.622C307.449 427.867 343.413 368.819 447.142 394.669C455.55 375.856 482.456 331.258 522.815 303.373M192.984 318.093C192.352 309.385 191.605 281.547 192.984 276.927C214.988 255.095 245.997 230.293 283.848 207.434M283.848 207.434L311.285 280.026M311.285 280.026C370.407 244.261 476.94 280.689 522.815 303.373" stroke="#002651" stroke-width="15"/>
</svg>
