<svg width="607" height="499" viewBox="0 0 607 499" fill="none" xmlns="http://www.w3.org/2000/svg">
<path d="M267.327 406.99C270.833 408.665 274.517 409.832 278.271 410.498L278.91 424.408L299.274 423.502L298.618 409.225C302.367 408.061 305.979 406.376 309.333 404.173L320.146 413.89L333.895 399.084L323.082 389.368C325.009 385.883 326.39 382.192 327.229 378.415L341.41 377.784L340.489 357.751L326.683 358.365C325.577 354.416 323.873 350.601 321.577 347.062L330.717 337.22L315.667 323.695L306.805 333.237C303.044 331.125 299.015 329.255 294.903 328.37C291.487 334.63 288.117 341.415 284.934 348.65C290.208 348.523 295.538 350.321 299.742 354.098C308.382 361.863 308.988 375.047 301.095 383.547C293.437 391.793 280.593 392.6 271.944 385.551C270.102 392.486 268.537 399.646 267.327 406.99Z" fill="#F6F6F6"/>
<path d="M399.038 275.016C395.947 274.843 392.87 274.73 389.812 274.684C389.145 275.705 388.524 276.769 387.952 277.874C378.776 295.628 385.968 317.339 404.016 326.366C422.064 335.392 444.134 328.318 453.31 310.563C457.742 301.987 458.356 292.488 455.771 283.941C452.831 283.221 449.869 282.532 446.89 281.876C450.648 289.627 450.834 298.948 446.572 307.193C439.288 321.287 421.768 326.903 407.442 319.737C393.115 312.572 387.406 295.338 394.69 281.244C395.884 278.934 397.353 276.852 399.038 275.016Z" fill="#002651"/>
<path d="M446.89 281.876C431.129 278.409 414.903 275.907 399.038 275.016C397.353 276.852 395.884 278.934 394.69 281.244C387.406 295.338 393.115 312.572 407.442 319.737C421.768 326.903 439.288 321.287 446.572 307.193C450.834 298.948 450.648 289.627 446.89 281.876Z" fill="#F6F6F6"/>
<path d="M477.148 289.786C470.216 287.697 463.062 285.727 455.771 283.941C458.356 292.488 457.742 301.987 453.31 310.563C444.134 328.318 422.064 335.392 404.016 326.366C385.968 317.339 378.776 295.628 387.952 277.874C388.524 276.769 389.145 275.705 389.812 274.684C378.623 274.514 367.701 275.228 357.344 277.06L365.03 280.905C363.666 286.679 363.287 292.546 363.823 298.29L347.553 303.505L355.886 328.659L372.625 323.292C375.648 327.876 379.389 332.052 383.789 335.639L375.651 351.384L399.623 363.374L408.008 347.151C413.518 348.294 419.097 348.589 424.568 348.095L430.353 365.561L455.923 357.364L449.984 339.437C454.335 336.66 458.325 333.268 461.803 329.307L479.025 337.92L491.213 314.338L473.991 305.725C475.196 300.627 477.431 294.88 477.148 289.786Z" fill="#F6F6F6"/>
<path d="M271.944 385.551C280.593 392.6 293.437 391.793 301.095 383.547C308.988 375.047 308.382 361.863 299.742 354.098C295.538 350.321 290.208 348.523 284.934 348.65C279.964 359.946 275.452 372.34 271.944 385.551Z" fill="#002651"/>
<path d="M321.435 289.812C314.327 297.494 304.442 310.886 294.903 328.37C299.015 329.255 303.044 331.125 306.805 333.237L315.667 323.695L330.717 337.22L321.577 347.062C323.873 350.601 325.577 354.416 326.683 358.365L340.489 357.751L341.41 377.784L327.229 378.415C326.39 382.192 325.009 385.883 323.082 389.368L333.895 399.084L320.146 413.89L309.333 404.173C305.979 406.376 302.367 408.061 298.618 409.225L299.274 423.502L278.91 424.408L278.271 410.498C274.517 409.832 270.833 408.665 267.327 406.99C263.099 432.659 264.481 459.669 272.309 488.092C299.971 475.377 309.494 472.198 309.494 472.198C322.933 386.091 419.5 389.853 458.544 405.037C468.635 367.487 504.487 336.213 539.408 313.713C524.216 306.325 501.58 297.147 477.148 289.786C477.431 294.88 475.196 300.627 473.991 305.725L491.213 314.338L479.025 337.92L461.803 329.307C458.325 333.268 454.335 336.66 449.984 339.437L455.923 357.364L430.353 365.561L424.568 348.095C419.097 348.589 413.518 348.294 408.008 347.151L399.623 363.374L375.651 351.384L383.789 335.639C379.389 332.052 375.648 327.876 372.625 323.292L355.886 328.659L347.553 303.505L363.823 298.29C363.287 292.546 363.666 286.679 365.03 280.905L357.344 277.06C344.272 279.373 332.102 283.466 321.435 289.812Z" fill="#002651"/>
<path d="M163.474 142.967L17 372.293L197.337 325.974C196.689 317.041 195.924 288.481 197.337 283.742C219.886 261.344 251.662 235.898 290.448 212.448C339.855 182.576 400.636 155.942 468.212 142.967C478.188 143.876 484.829 147.963 498.595 155.683L588.837 14L163.474 142.967Z" fill="#3D2886"/>
<path d="M597 278.747C572.694 210.812 521.269 168.398 498.595 155.683C484.829 147.963 478.188 143.876 468.212 142.967C400.636 155.942 339.855 182.576 290.448 212.448L318.564 286.921C379.149 250.228 488.316 287.601 535.327 310.873C558.196 295.874 581.078 284.861 597 278.747Z" fill="#4FC1E9"/>
<path d="M197.337 325.974C201.471 382.953 260.972 473.106 268.681 489C244.012 397.815 295.587 312.199 318.564 286.921L290.448 212.448C251.662 235.898 219.886 261.344 197.337 283.742C195.924 288.481 196.689 317.041 197.337 325.974Z" fill="#127095"/>
<path d="M498.595 155.683L588.837 14L163.474 142.967L17 372.293L197.337 325.974M498.595 155.683C521.269 168.398 572.694 210.812 597 278.747C581.078 284.861 558.196 295.874 535.327 310.873M498.595 155.683C484.829 147.963 478.188 143.876 468.212 142.967C400.636 155.942 339.855 182.576 290.448 212.448M268.681 489C260.972 473.106 201.471 382.953 197.337 325.974M268.681 489C244.012 397.815 295.587 312.199 318.564 286.921M268.681 489L309.494 472.198C314.634 438.594 351.486 378.015 457.782 404.535C466.398 385.234 493.97 339.481 535.327 310.873M197.337 325.974C196.689 317.041 195.924 288.481 197.337 283.742C219.886 261.344 251.662 235.898 290.448 212.448M290.448 212.448L318.564 286.921M318.564 286.921C379.149 250.228 488.316 287.601 535.327 310.873" stroke="#F6F6F6" stroke-width="15"/>
</svg>
